<svg xmlns="http://www.w3.org/2000/svg" width="95.903" height="40.6" viewBox="0 0 95.903 40.6">
  <path id="logo-light" d="M14.819-38.28h8.613L38.541,0H29.29L26.506-7.685H11.774L8.961,0H-.319Zm-.145,23h8.961L19.2-27.84h-.087ZM43.007,0H34.191V-23.809h8.816v3.683h-.145a5.761,5.761,0,0,1,1.131-1.7,8.3,8.3,0,0,1,2.523-1.856,8.688,8.688,0,0,1,3.973-.826A8.828,8.828,0,0,1,53.534-24a8.671,8.671,0,0,1,2.03.972l-3.422,7.163a4.692,4.692,0,0,0-1.436-1.03,5.515,5.515,0,0,0-2.567-.536,4.578,4.578,0,0,0-2.915.9,5.394,5.394,0,0,0-1.682,2.175,6.224,6.224,0,0,0-.536,2.407ZM63.539-6.235A5.818,5.818,0,0,0,66.265-6.8a7.548,7.548,0,0,0,1.45-.913L71.746-1.74a10.478,10.478,0,0,1-1.6.971A13.146,13.146,0,0,1,67.323.261,15.639,15.639,0,0,1,63.452.7,15.882,15.882,0,0,1,56.26-.856a11.559,11.559,0,0,1-4.828-4.394,12.6,12.6,0,0,1-1.726-6.67,12.505,12.505,0,0,1,1.726-6.67,11.621,11.621,0,0,1,4.828-4.365,15.882,15.882,0,0,1,7.192-1.552,15.03,15.03,0,0,1,3.842.45,15.845,15.845,0,0,1,2.856,1.015,7.891,7.891,0,0,1,1.624.972l-4.118,6.032a6.171,6.171,0,0,0-.74-.58,5.544,5.544,0,0,0-1.378-.667,6.157,6.157,0,0,0-2-.29,5.145,5.145,0,0,0-2.653.725,5.552,5.552,0,0,0-1.986,2,5.648,5.648,0,0,0-.754,2.929A5.726,5.726,0,0,0,58.9-8.976,5.519,5.519,0,0,0,60.885-6.96,5.144,5.144,0,0,0,63.539-6.235ZM85.26-24.505a12.3,12.3,0,0,1,4.872,1.015,9.058,9.058,0,0,1,3.915,3.2,9.818,9.818,0,0,1,1.537,5.757V0H86.768V-13.079a5.633,5.633,0,0,0-1.146-3.842,3.956,3.956,0,0,0-3.118-1.29,4.943,4.943,0,0,0-2.494.681,5.3,5.3,0,0,0-1.929,1.914,5.388,5.388,0,0,0-.739,2.827V0H68.5V-39.9h8.845v19.6a4.613,4.613,0,0,1,1.436-1.929,9.361,9.361,0,0,1,2.813-1.624A10.133,10.133,0,0,1,85.26-24.505Z" transform="translate(0.319 39.904)" fill="#fff"/>
</svg>
